<svg width="17" height="17" viewBox="0 0 17 17" fill="none" xmlns="http://www.w3.org/2000/svg">
<path d="M8.5 1.41699C12.412 1.41699 15.583 4.58798 15.583 8.5C15.583 12.412 12.412 15.583 8.5 15.583C4.58798 15.583 1.41699 12.412 1.41699 8.5C1.41699 4.58798 4.58798 1.41699 8.5 1.41699ZM7.04199 5.16406C6.72664 4.9966 6.35245 5.21248 6.33984 5.56934C6.29879 6.73157 6.27921 8.90269 6.66016 9.5625C7.04144 10.2223 8.93109 11.2904 9.95801 11.8359C10.2733 12.0034 10.6474 11.7874 10.6602 11.4307C10.7012 10.2686 10.7216 8.09764 10.3408 7.4375C9.95988 6.77768 8.06904 5.70962 7.04199 5.16406Z" fill="#312684"/>
</svg>
