<svg width="20" height="20" viewBox="0 0 20 20" fill="none" xmlns="http://www.w3.org/2000/svg">
<path d="M10.8333 5.83333V2.5H8.16663C6.28101 2.5 5.3382 2.5 4.75241 3.08579C4.16663 3.67157 4.16663 4.61438 4.16663 6.5V13.5C4.16663 15.3856 4.16663 16.3284 4.75241 16.9142C5.3382 17.5 6.28101 17.5 8.16663 17.5H11.8333C13.7189 17.5 14.6617 17.5 15.2475 16.9142C15.8333 16.3284 15.8333 15.3856 15.8333 13.5V7.5H12.5C11.7143 7.5 11.3214 7.5 11.0774 7.25592C10.8333 7.01184 10.8333 6.61901 10.8333 5.83333Z" fill="#7E869E" fill-opacity="0.25"/>
<path d="M10.9763 2.5H7.49996C5.92861 2.5 5.14294 2.5 4.65478 2.98816C4.16663 3.47631 4.16663 4.26198 4.16663 5.83333V14.1667C4.16663 15.738 4.16663 16.5237 4.65478 17.0118C5.14294 17.5 5.92861 17.5 7.49996 17.5H12.5C14.0713 17.5 14.857 17.5 15.3451 17.0118C15.8333 16.5237 15.8333 15.738 15.8333 14.1667V7.35702C15.8333 7.0164 15.8333 6.84608 15.7699 6.69294C15.7064 6.5398 15.586 6.41937 15.3451 6.17851L12.1548 2.98816C11.9139 2.7473 11.7935 2.62687 11.6404 2.56343C11.4872 2.5 11.3169 2.5 10.9763 2.5Z" stroke="#222222" stroke-width="1.2"/>
<path d="M7.5 10.8333L12.5 10.8333" stroke="#222222" stroke-width="1.2" stroke-linecap="round"/>
<path d="M7.5 14.1667L10.8333 14.1667" stroke="#222222" stroke-width="1.2" stroke-linecap="round"/>
<path d="M10.8334 2.5V5.83333C10.8334 6.61901 10.8334 7.01184 11.0775 7.25592C11.3215 7.5 11.7144 7.5 12.5 7.5H15.8334" stroke="#222222" stroke-width="1.2"/>
</svg>
