<svg width="18" height="18" viewBox="0 0 18 18" fill="none" xmlns="http://www.w3.org/2000/svg">
<path d="M13.875 9C13.875 11.6924 11.6924 13.875 9 13.875C6.30761 13.875 4.125 11.6924 4.125 9C4.125 4.81469 8.34202 2.2513 8.93181 1.91325C8.97556 1.88818 9.02444 1.88818 9.06818 1.91325C9.65798 2.2513 13.875 4.81468 13.875 9Z" stroke="#312684" stroke-width="2" stroke-linejoin="round"/>
<path d="M11.625 9.00008L12.6237 9.05093C12.6246 9.03399 12.625 9.01703 12.625 9.00007L11.625 9.00008ZM11.6113 9.26864L12.6062 9.36981C12.6079 9.35307 12.6092 9.33628 12.61 9.31948L11.6113 9.26864ZM9 11.6251L8.99998 12.6251H9V11.6251ZM6.38867 9.26864L5.38997 9.31948C5.39082 9.33628 5.3921 9.35306 5.3938 9.3698L6.38867 9.26864ZM6.375 9.00008L5.375 9.00007C5.375 9.01703 5.37543 9.03399 5.37629 9.05093L6.375 9.00008ZM9.08431 4.93809L9.69234 4.14418L9.08431 4.93809ZM8.91564 4.93813L9.52368 5.73204L8.91564 4.93813ZM9.08431 4.93809L8.47629 5.73201C8.66917 5.87973 9.23474 6.33733 9.74321 6.97088C10.2666 7.62301 10.625 8.33155 10.625 9.00009L11.625 9.00008L12.625 9.00007C12.625 7.66025 11.9376 6.50981 11.303 5.71904C10.6534 4.90969 9.94866 4.34048 9.69234 4.14418L9.08431 4.93809ZM11.625 9.00008L10.6263 8.94924L10.6126 9.21779L11.6113 9.26864L12.61 9.31948L12.6237 9.05093L11.625 9.00008ZM11.6113 9.26864L10.6165 9.16747C10.5332 9.98585 9.84054 10.6251 9 10.6251V11.6251V12.6251C10.8775 12.6251 12.4202 11.1984 12.6062 9.36981L11.6113 9.26864ZM9 11.6251L9.00002 10.6251C8.15946 10.6251 7.46676 9.98582 7.38354 9.16747L6.38867 9.26864L5.3938 9.3698C5.57975 11.1984 7.12254 12.6251 8.99998 12.6251L9 11.6251ZM6.38867 9.26864L7.38738 9.21779L7.37371 8.94924L6.375 9.00008L5.37629 9.05093L5.38997 9.31948L6.38867 9.26864ZM6.375 9.00008L7.375 9.00009C7.37501 8.33159 7.73337 7.62307 8.25673 6.97096C8.76517 6.33742 9.33073 5.87981 9.52368 5.73204L8.91564 4.93813L8.3076 4.14422C8.05121 4.34058 7.34647 4.90981 6.69693 5.71915C6.0623 6.50991 5.37501 7.66031 5.375 9.00007L6.375 9.00008ZM9.08431 4.93809L9.69234 4.14418C9.28226 3.83011 8.71689 3.83075 8.3076 4.14422L8.91564 4.93813L9.52368 5.73204C9.21619 5.96754 8.78457 5.96811 8.47629 5.73201L9.08431 4.93809Z" fill="#312684"/>
<path d="M9 15.75V9" stroke="#312684" stroke-width="2"/>
</svg>
