<svg width="20" height="20" viewBox="0 0 20 20" fill="none" xmlns="http://www.w3.org/2000/svg">
<path d="M9 11.3474V16.7292C8.64344 16.5288 8.2263 16.2335 7.6748 15.8396L5.8418 14.53C5.02087 13.9437 4.61038 13.65 4.38867 13.2195C4.16703 12.7888 4.16699 12.284 4.16699 11.2751V8.72534C4.16699 8.40375 4.16763 8.13319 4.1748 7.90015L9 11.3474ZM15.8242 7.90112C15.8314 8.13395 15.833 8.40419 15.833 8.72534V11.2751C15.833 12.284 15.833 12.7888 15.6113 13.2195C15.3896 13.65 14.9791 13.9437 14.1582 14.53L12.3252 15.8396C11.7737 16.2335 11.3566 16.5288 11 16.7292V11.3484L15.8242 7.90112ZM10 2.95776C10.6409 2.95776 11.2025 3.35897 12.3252 4.16089L14.1582 5.47046C14.4865 5.70495 14.7488 5.89301 14.96 6.06128L10 9.60327L5.03906 6.06128C5.25036 5.89289 5.51321 5.70517 5.8418 5.47046L7.6748 4.16089C8.79749 3.35897 9.35907 2.95776 10 2.95776Z" fill="#747474"/>
</svg>
